<?xml version="1.0" encoding="UTF-8" standalone="no"?>
<svg
   xmlns:dc="http://purl.org/dc/elements/1.1/"
   xmlns:cc="http://creativecommons.org/ns#"
   xmlns:rdf="http://www.w3.org/1999/02/22-rdf-syntax-ns#"
   xmlns:svg="http://www.w3.org/2000/svg"
   xmlns="http://www.w3.org/2000/svg"
   xmlns:sodipodi="http://sodipodi.sourceforge.net/DTD/sodipodi-0.dtd"
   xmlns:inkscape="http://www.inkscape.org/namespaces/inkscape"
   width="500"
   height="500"
   id="svg2"
   version="1.1"
   inkscape:version="0.91 r13725"
   sodipodi:docname="map-pin-red-center.svg">
  <metadata
     id="metadata16">
    <rdf:RDF>
      <cc:Work
         rdf:about="">
        <dc:format>image/svg+xml</dc:format>
        <dc:type
           rdf:resource="http://purl.org/dc/dcmitype/StillImage" />
        <dc:title>Map Pin Red</dc:title>
      </cc:Work>
    </rdf:RDF>
  </metadata>
  <defs
     id="defs14" />
  <sodipodi:namedview
     pagecolor="#ffffff"
     bordercolor="#666666"
     borderopacity="1"
     objecttolerance="10"
     gridtolerance="10"
     guidetolerance="10"
     inkscape:pageopacity="0"
     inkscape:pageshadow="2"
     inkscape:window-width="1089"
     inkscape:window-height="600"
     id="namedview12"
     showgrid="false"
     inkscape:zoom="0.15624199"
     inkscape:cx="300.81537"
     inkscape:cy="951.17695"
     inkscape:window-x="0"
     inkscape:window-y="603"
     inkscape:window-maximized="0"
     inkscape:current-layer="svg2" />
  <title
     id="title4">Map Pin Red</title>
  <g
     id="g6"
     transform="matrix(0.27349145,0,0,0.27706122,-33.921676,-68.550009)">
    <title
       id="title8">Layer 1</title>
    <path
       id="svg_2"
       stroke-miterlimit="10"
       d="M 1077.9399,1959.63 C 1039.17,1769.33 970.82397,1610.96 888.03699,1464.1899 826.63001,1355.3199 755.49298,1254.83 689.67297,1149.25 667.70099,1114.01 648.73901,1076.77 627.62598,1040.2 585.40997,967.06 551.18201,882.26202 553.35699,772.26501 c 2.125,-107.47302 33.20801,-193.68402 78.03003,-264.17202 73.719,-115.935 197.20099,-210.98899 362.88398,-235.969 135.469,-20.42399 262.479,14.082 352.5391,66.74802 73.5999,43.03799 130.5999,100.52698 173.9199,168.28 45.22,70.71597 76.36,154.25998 78.97,263.23196 1.34,55.83002 -7.8,107.53204 -20.68,150.41803 -13.03,43.409 -33.99,79.698 -52.64,118.458 -36.41,75.66 -82.05,144.98 -127.86,214.34 -136.44,206.61 -264.5,417.31 -320.5801,706.03 z"
       inkscape:connector-curvature="0"
       style="clip-rule:evenodd;fill:#ff0000;fill-rule:evenodd;stroke:#000000;stroke-width:37;stroke-miterlimit:10" />
    <circle
       id="svg_4"
       cx="1080.55"
       cy="740.047"
       r="183.332"
       style="clip-rule:evenodd;fill:#000000;fill-rule:evenodd" />
  </g>
</svg>
